<svg width="380" height="82" viewBox="0 0 380 82" fill="none" xmlns="http://www.w3.org/2000/svg">
<rect width="380" height="82" fill="#D9D9D9"/>
<path d="M35.8956 56.576V34.4H40.2636V30.08H44.5836V25.712H49.4796V30.08H53.7996V34.4H58.2156V56.576H53.3196V47.888H40.7436V56.576H35.8956ZM40.7436 43.04H53.3196V34.88H48.9996V30.56H45.0636V34.88H40.7436V43.04ZM68.3886 56.576V52.256H64.0206V38.768H68.3886V34.4H81.4926V25.712H86.3406V52.256H81.9246V56.576H68.3886ZM68.8686 51.776H81.4446V39.2H68.8686V51.776ZM95.5761 56.576V52.256H91.2081V38.768H95.5761V34.4H108.68V25.712H113.528V52.256H109.112V56.576H95.5761ZM96.0561 51.776H108.632V39.2H96.0561V51.776ZM128.943 56.576V34.4H133.791V56.576H128.943ZM128.943 30.56V25.712H133.791V30.56H128.943ZM138.646 56.576V34.4H152.23V38.768H156.07V34.4H165.334V38.768H169.654V56.576H164.854V39.2H156.55V56.576H151.75V39.2H143.494V56.576H138.646ZM179.342 56.576V52.256H174.974V38.768H179.342V34.4H192.878V38.768H197.294V51.776H201.662V56.576H196.814V52.256H192.878V56.576H179.342ZM179.822 51.776H192.398V39.2H179.822V51.776ZM209.436 65.264V60.944H205.068V56.144H209.916V60.464H222.54V52.256H209.436V47.888H205.068V38.768H209.436V34.4H223.02V38.768H227.388V60.944H223.02V65.264H209.436ZM209.916 47.408H222.54V39.2H209.916V47.408ZM236.107 56.576V52.256H231.739V38.768H236.107V34.4H249.643V38.768H254.059V43.52H249.163V39.2H236.587V43.04H245.323V47.888H236.587V51.776H249.163V47.36H254.059V52.208H249.643V56.576H236.107Z" fill="black"/>
<path d="M314.5 23L314.5 56M314.5 56L328 44.6393M314.5 56L301 44.6393" stroke="black" stroke-width="9" stroke-linecap="round"/>
<circle cx="314" cy="41" r="30" stroke="black" stroke-width="6"/>
</svg>
